<?xml version="1.0" encoding="UTF-8" standalone="no"?> <svg width="512" height="512" viewBox="0 0 512 512" fill="none" xmlns="http://www.w3.org/2000/svg">
<path d="M32 96H480V416H32V96Z" fill="#E92B2B"/>
<path fill-rule="evenodd" clip-rule="evenodd" d="M256 147.289L280.407 222.406H359.39L295.491 268.831L319.898 343.949L256 297.524L192.101 343.949L216.508 268.831L152.609 222.406H231.592L256 147.289ZM227.433 235.206H192.004L220.667 256.031L227.433 235.206ZM231.555 263.942L240.892 235.206H271.107L280.444 263.942L256 281.702L231.555 263.942ZM227.396 276.742L216.448 310.438L245.111 289.613L227.396 276.742ZM266.888 289.613L295.551 310.438L284.603 276.742L266.888 289.613ZM291.332 256.031L319.995 235.206H284.566L291.332 256.031ZM266.948 222.406H245.051L256 188.711L266.948 222.406Z" fill="#32AB45"/>
</svg>
